<svg width="1920" height="283" viewBox="0 0 1920 283" fill="none" xmlns="http://www.w3.org/2000/svg">
<g filter="url(#filter0_b_165_93)">
<path d="M0 283H1920V0.0313698H0V283Z" fill="url(#paint0_linear_165_93)"/>
<path d="M0 151.607C106.494 207.908 359.434 298.227 584 239.689C657.126 220.627 741.47 195.515 829.863 169.198C1089.59 91.8676 1384.27 4.13161 1532 28.9059C1618.54 43.4196 1706.61 131.852 1781.02 206.559C1810.28 235.939 1837.42 263.196 1861.53 283H1920V0.0313698H0L0 151.607Z" fill="#D9D9D9" fill-opacity="0.1"/>
<path d="M0 282.969H1920V0H0V282.969Z" fill="#D9D9D9" fill-opacity="0.1"/>
</g>
<defs>
<filter id="filter0_b_165_93" x="-139" y="-139" width="2198" height="561" filterUnits="userSpaceOnUse" color-interpolation-filters="sRGB">
<feFlood flood-opacity="0" result="BackgroundImageFix"/>
<feGaussianBlur in="BackgroundImageFix" stdDeviation="69.5"/>
<feComposite in2="SourceAlpha" operator="in" result="effect1_backgroundBlur_165_93"/>
<feBlend mode="normal" in="SourceGraphic" in2="effect1_backgroundBlur_165_93" result="shape"/>
</filter>
<linearGradient id="paint0_linear_165_93" x1="-6.45519e-06" y1="18.6046" x2="838.947" y2="1147.88" gradientUnits="userSpaceOnUse">
<stop offset="0.0162474" stop-color="#576574"/>
<stop offset="1" stop-color="#E9EBF8"/>
</linearGradient>
</defs>
</svg>
