<svg width="1920" height="1080" viewBox="0 0 1920 1080" fill="none" xmlns="http://www.w3.org/2000/svg">
<g style="mix-blend-mode:overlay " opacity="0.3">
<path d="M68.607 424.243C68.607 443.186 53.2488 458.543 34.3035 458.543C15.3582 458.543 0 443.186 0 424.243C0 405.299 15.3582 389.942 34.3035 389.942C53.2488 389.942 68.607 405.299 68.607 424.243Z" fill="url(#paint0_linear_173_74)"/>
<path d="M68.607 619.214C68.607 638.158 53.2488 653.514 34.3035 653.514C15.3582 653.514 0 638.158 0 619.214C0 600.27 15.3582 584.913 34.3035 584.913C53.2488 584.913 68.607 600.27 68.607 619.214Z" fill="url(#paint1_linear_173_74)"/>
<path d="M68.607 521.728C68.607 540.672 53.2488 556.029 34.3035 556.029C15.3582 556.029 0 540.672 0 521.728C0 502.785 15.3582 487.428 34.3035 487.428C53.2488 487.428 68.607 502.785 68.607 521.728Z" fill="url(#paint2_linear_173_74)"/>
<path d="M68.607 716.699C68.607 735.643 53.2488 751 34.3035 751C15.3582 751 0 735.643 0 716.699C0 697.756 15.3582 682.399 34.3035 682.399C53.2488 682.399 68.607 697.756 68.607 716.699Z" fill="url(#paint3_linear_173_74)"/>
<path d="M314.148 424.243C314.148 443.186 298.79 458.543 279.844 458.543C260.899 458.543 245.541 443.186 245.541 424.243C245.541 405.299 260.899 389.942 279.844 389.942C298.79 389.942 314.148 405.299 314.148 424.243Z" fill="url(#paint4_linear_173_74)"/>
<path d="M314.148 619.214C314.148 638.158 298.79 653.514 279.844 653.514C260.899 653.514 245.541 638.158 245.541 619.214C245.541 600.27 260.899 584.913 279.844 584.913C298.79 584.913 314.148 600.27 314.148 619.214Z" fill="url(#paint5_linear_173_74)"/>
<path d="M314.148 521.728C314.148 540.672 298.79 556.029 279.844 556.029C260.899 556.029 245.541 540.672 245.541 521.728C245.541 502.785 260.899 487.428 279.844 487.428C298.79 487.428 314.148 502.785 314.148 521.728Z" fill="url(#paint6_linear_173_74)"/>
<path d="M314.148 716.699C314.148 735.643 298.79 751 279.844 751C260.899 751 245.541 735.643 245.541 716.699C245.541 697.756 260.899 682.399 279.844 682.399C298.79 682.399 314.148 697.756 314.148 716.699Z" fill="url(#paint7_linear_173_74)"/>
<path d="M191.377 424.243C191.377 443.186 176.019 458.543 157.074 458.543C138.129 458.543 122.77 443.186 122.77 424.243C122.77 405.299 138.129 389.942 157.074 389.942C176.019 389.942 191.377 405.299 191.377 424.243Z" fill="url(#paint8_linear_173_74)"/>
<path d="M191.377 619.214C191.377 638.158 176.019 653.514 157.074 653.514C138.129 653.514 122.77 638.158 122.77 619.214C122.77 600.27 138.129 584.913 157.074 584.913C176.019 584.913 191.377 600.27 191.377 619.214Z" fill="url(#paint9_linear_173_74)"/>
<path d="M191.377 521.728C191.377 540.672 176.019 556.029 157.074 556.029C138.129 556.029 122.77 540.672 122.77 521.728C122.77 502.785 138.129 487.428 157.074 487.428C176.019 487.428 191.377 502.785 191.377 521.728Z" fill="url(#paint10_linear_173_74)"/>
<path d="M191.377 716.699C191.377 735.643 176.019 751 157.074 751C138.129 751 122.77 735.643 122.77 716.699C122.77 697.756 138.129 682.399 157.074 682.399C176.019 682.399 191.377 697.756 191.377 716.699Z" fill="url(#paint11_linear_173_74)"/>
<path d="M436.918 424.243C436.918 443.186 421.56 458.543 402.615 458.543C383.669 458.543 368.311 443.186 368.311 424.243C368.311 405.299 383.669 389.942 402.615 389.942C421.56 389.942 436.918 405.299 436.918 424.243Z" fill="url(#paint12_linear_173_74)"/>
<path d="M436.918 619.214C436.918 638.158 421.56 653.514 402.615 653.514C383.669 653.514 368.311 638.158 368.311 619.214C368.311 600.27 383.669 584.913 402.615 584.913C421.56 584.913 436.918 600.27 436.918 619.214Z" fill="url(#paint13_linear_173_74)"/>
<path d="M436.918 521.728C436.918 540.672 421.56 556.029 402.615 556.029C383.669 556.029 368.311 540.672 368.311 521.728C368.311 502.785 383.669 487.428 402.615 487.428C421.56 487.428 436.918 502.785 436.918 521.728Z" fill="url(#paint14_linear_173_74)"/>
<path d="M436.918 716.699C436.918 735.643 421.56 751 402.615 751C383.669 751 368.311 735.643 368.311 716.699C368.311 697.756 383.669 682.399 402.615 682.399C421.56 682.399 436.918 697.756 436.918 716.699Z" fill="url(#paint15_linear_173_74)"/>
<path d="M559.689 424.243C559.689 443.186 544.33 458.543 525.385 458.543C506.44 458.543 491.082 443.186 491.082 424.243C491.082 405.299 506.44 389.942 525.385 389.942C544.33 389.942 559.689 405.299 559.689 424.243Z" fill="url(#paint16_linear_173_74)"/>
<path d="M559.689 619.214C559.689 638.158 544.33 653.514 525.385 653.514C506.44 653.514 491.082 638.158 491.082 619.214C491.082 600.27 506.44 584.913 525.385 584.913C544.33 584.913 559.689 600.27 559.689 619.214Z" fill="url(#paint17_linear_173_74)"/>
<path d="M559.689 521.728C559.689 540.672 544.33 556.029 525.385 556.029C506.44 556.029 491.082 540.672 491.082 521.728C491.082 502.785 506.44 487.428 525.385 487.428C544.33 487.428 559.689 502.785 559.689 521.728Z" fill="url(#paint18_linear_173_74)"/>
<path d="M559.689 716.699C559.689 735.643 544.33 751 525.385 751C506.44 751 491.082 735.643 491.082 716.699C491.082 697.756 506.44 682.399 525.385 682.399C544.33 682.399 559.689 697.756 559.689 716.699Z" fill="url(#paint19_linear_173_74)"/>
<path d="M805.229 424.243C805.229 443.186 789.871 458.543 770.926 458.543C751.981 458.543 736.622 443.186 736.622 424.243C736.622 405.299 751.981 389.942 770.926 389.942C789.871 389.942 805.229 405.299 805.229 424.243Z" fill="url(#paint20_linear_173_74)"/>
<path d="M805.229 619.214C805.229 638.158 789.871 653.514 770.926 653.514C751.981 653.514 736.622 638.158 736.622 619.214C736.622 600.27 751.981 584.913 770.926 584.913C789.871 584.913 805.229 600.27 805.229 619.214Z" fill="url(#paint21_linear_173_74)"/>
<path d="M805.229 521.728C805.229 540.672 789.871 556.029 770.926 556.029C751.981 556.029 736.622 540.672 736.622 521.728C736.622 502.785 751.981 487.428 770.926 487.428C789.871 487.428 805.229 502.785 805.229 521.728Z" fill="url(#paint22_linear_173_74)"/>
<path d="M805.229 716.699C805.229 735.643 789.871 751 770.926 751C751.981 751 736.622 735.643 736.622 716.699C736.622 697.756 751.981 682.399 770.926 682.399C789.871 682.399 805.229 697.756 805.229 716.699Z" fill="url(#paint23_linear_173_74)"/>
<path d="M682.459 424.243C682.459 443.186 667.101 458.543 648.156 458.543C629.21 458.543 613.852 443.186 613.852 424.243C613.852 405.299 629.21 389.942 648.156 389.942C667.101 389.942 682.459 405.299 682.459 424.243Z" fill="url(#paint24_linear_173_74)"/>
<path d="M682.459 619.214C682.459 638.158 667.101 653.514 648.156 653.514C629.21 653.514 613.852 638.158 613.852 619.214C613.852 600.27 629.21 584.913 648.156 584.913C667.101 584.913 682.459 600.27 682.459 619.214Z" fill="url(#paint25_linear_173_74)"/>
<path d="M682.459 521.728C682.459 540.672 667.101 556.029 648.156 556.029C629.21 556.029 613.852 540.672 613.852 521.728C613.852 502.785 629.21 487.428 648.156 487.428C667.101 487.428 682.459 502.785 682.459 521.728Z" fill="url(#paint26_linear_173_74)"/>
<path d="M682.459 716.699C682.459 735.643 667.101 751 648.156 751C629.21 751 613.852 735.643 613.852 716.699C613.852 697.756 629.21 682.399 648.156 682.399C667.101 682.399 682.459 697.756 682.459 716.699Z" fill="url(#paint27_linear_173_74)"/>
<path d="M928 424.243C928 443.186 912.642 458.543 893.696 458.543C874.751 458.543 859.393 443.186 859.393 424.243C859.393 405.299 874.751 389.942 893.696 389.942C912.642 389.942 928 405.299 928 424.243Z" fill="url(#paint28_linear_173_74)"/>
<path d="M928 619.214C928 638.158 912.642 653.514 893.696 653.514C874.751 653.514 859.393 638.158 859.393 619.214C859.393 600.27 874.751 584.913 893.696 584.913C912.642 584.913 928 600.27 928 619.214Z" fill="url(#paint29_linear_173_74)"/>
<path d="M928 521.728C928 540.672 912.642 556.029 893.696 556.029C874.751 556.029 859.393 540.672 859.393 521.728C859.393 502.785 874.751 487.428 893.696 487.428C912.642 487.428 928 502.785 928 521.728Z" fill="url(#paint30_linear_173_74)"/>
<path d="M928 716.699C928 735.643 912.642 751 893.696 751C874.751 751 859.393 735.643 859.393 716.699C859.393 697.756 874.751 682.399 893.696 682.399C912.642 682.399 928 697.756 928 716.699Z" fill="url(#paint31_linear_173_74)"/>
<path d="M68.607 34.3005C68.607 53.2441 53.2488 68.601 34.3035 68.601C15.3582 68.601 0 53.2441 0 34.3005C0 15.3568 15.3582 0 34.3035 0C53.2488 0 68.607 15.3568 68.607 34.3005Z" fill="url(#paint32_linear_173_74)"/>
<path d="M68.607 229.272C68.607 248.215 53.2488 263.572 34.3035 263.572C15.3582 263.572 0 248.215 0 229.272C0 210.328 15.3582 194.971 34.3035 194.971C53.2488 194.971 68.607 210.328 68.607 229.272Z" fill="url(#paint33_linear_173_74)"/>
<path d="M68.607 131.786C68.607 150.73 53.2488 166.087 34.3035 166.087C15.3582 166.087 0 150.73 0 131.786C0 112.842 15.3582 97.4856 34.3035 97.4856C53.2488 97.4856 68.607 112.842 68.607 131.786Z" fill="url(#paint34_linear_173_74)"/>
<path d="M68.607 326.757C68.607 345.701 53.2488 361.058 34.3035 361.058C15.3582 361.058 0 345.701 0 326.757C0 307.814 15.3582 292.457 34.3035 292.457C53.2488 292.457 68.607 307.814 68.607 326.757Z" fill="url(#paint35_linear_173_74)"/>
<path d="M314.148 34.3005C314.148 53.2441 298.79 68.601 279.844 68.601C260.899 68.601 245.541 53.2441 245.541 34.3005C245.541 15.3568 260.899 0 279.844 0C298.79 0 314.148 15.3568 314.148 34.3005Z" fill="url(#paint36_linear_173_74)"/>
<path d="M314.148 229.272C314.148 248.215 298.79 263.572 279.844 263.572C260.899 263.572 245.541 248.215 245.541 229.272C245.541 210.328 260.899 194.971 279.844 194.971C298.79 194.971 314.148 210.328 314.148 229.272Z" fill="url(#paint37_linear_173_74)"/>
<path d="M314.148 131.786C314.148 150.73 298.79 166.087 279.844 166.087C260.899 166.087 245.541 150.73 245.541 131.786C245.541 112.842 260.899 97.4856 279.844 97.4856C298.79 97.4856 314.148 112.842 314.148 131.786Z" fill="url(#paint38_linear_173_74)"/>
<path d="M314.148 326.757C314.148 345.701 298.79 361.058 279.844 361.058C260.899 361.058 245.541 345.701 245.541 326.757C245.541 307.814 260.899 292.457 279.844 292.457C298.79 292.457 314.148 307.814 314.148 326.757Z" fill="url(#paint39_linear_173_74)"/>
<path d="M191.377 34.3005C191.377 53.2441 176.019 68.601 157.074 68.601C138.129 68.601 122.77 53.2441 122.77 34.3005C122.77 15.3568 138.129 0 157.074 0C176.019 0 191.377 15.3568 191.377 34.3005Z" fill="url(#paint40_linear_173_74)"/>
<path d="M191.377 229.272C191.377 248.215 176.019 263.572 157.074 263.572C138.129 263.572 122.77 248.215 122.77 229.272C122.77 210.328 138.129 194.971 157.074 194.971C176.019 194.971 191.377 210.328 191.377 229.272Z" fill="url(#paint41_linear_173_74)"/>
<path d="M191.377 131.786C191.377 150.73 176.019 166.087 157.074 166.087C138.129 166.087 122.77 150.73 122.77 131.786C122.77 112.842 138.129 97.4856 157.074 97.4856C176.019 97.4856 191.377 112.842 191.377 131.786Z" fill="url(#paint42_linear_173_74)"/>
<path d="M191.377 326.757C191.377 345.701 176.019 361.058 157.074 361.058C138.129 361.058 122.77 345.701 122.77 326.757C122.77 307.814 138.129 292.457 157.074 292.457C176.019 292.457 191.377 307.814 191.377 326.757Z" fill="url(#paint43_linear_173_74)"/>
<path d="M436.918 34.3005C436.918 53.2441 421.56 68.601 402.615 68.601C383.669 68.601 368.311 53.2441 368.311 34.3005C368.311 15.3568 383.669 0 402.615 0C421.56 0 436.918 15.3568 436.918 34.3005Z" fill="url(#paint44_linear_173_74)"/>
<path d="M436.918 229.272C436.918 248.215 421.56 263.572 402.615 263.572C383.669 263.572 368.311 248.215 368.311 229.272C368.311 210.328 383.669 194.971 402.615 194.971C421.56 194.971 436.918 210.328 436.918 229.272Z" fill="url(#paint45_linear_173_74)"/>
<path d="M436.918 131.786C436.918 150.73 421.56 166.087 402.615 166.087C383.669 166.087 368.311 150.73 368.311 131.786C368.311 112.842 383.669 97.4856 402.615 97.4856C421.56 97.4856 436.918 112.842 436.918 131.786Z" fill="url(#paint46_linear_173_74)"/>
<path d="M436.918 326.757C436.918 345.701 421.56 361.058 402.615 361.058C383.669 361.058 368.311 345.701 368.311 326.757C368.311 307.814 383.669 292.457 402.615 292.457C421.56 292.457 436.918 307.814 436.918 326.757Z" fill="url(#paint47_linear_173_74)"/>
<path d="M559.689 34.3005C559.689 53.2441 544.33 68.601 525.385 68.601C506.44 68.601 491.082 53.2441 491.082 34.3005C491.082 15.3568 506.44 0 525.385 0C544.33 0 559.689 15.3568 559.689 34.3005Z" fill="url(#paint48_linear_173_74)"/>
<path d="M559.689 229.272C559.689 248.215 544.33 263.572 525.385 263.572C506.44 263.572 491.082 248.215 491.082 229.272C491.082 210.328 506.44 194.971 525.385 194.971C544.33 194.971 559.689 210.328 559.689 229.272Z" fill="url(#paint49_linear_173_74)"/>
<path d="M559.689 131.786C559.689 150.73 544.33 166.087 525.385 166.087C506.44 166.087 491.082 150.73 491.082 131.786C491.082 112.842 506.44 97.4856 525.385 97.4856C544.33 97.4856 559.689 112.842 559.689 131.786Z" fill="url(#paint50_linear_173_74)"/>
<path d="M559.689 326.757C559.689 345.701 544.33 361.058 525.385 361.058C506.44 361.058 491.082 345.701 491.082 326.757C491.082 307.814 506.44 292.457 525.385 292.457C544.33 292.457 559.689 307.814 559.689 326.757Z" fill="url(#paint51_linear_173_74)"/>
<path d="M805.229 34.3005C805.229 53.2441 789.871 68.601 770.926 68.601C751.981 68.601 736.622 53.2441 736.622 34.3005C736.622 15.3568 751.981 0 770.926 0C789.871 0 805.229 15.3568 805.229 34.3005Z" fill="url(#paint52_linear_173_74)"/>
<path d="M805.229 229.272C805.229 248.215 789.871 263.572 770.926 263.572C751.981 263.572 736.622 248.215 736.622 229.272C736.622 210.328 751.981 194.971 770.926 194.971C789.871 194.971 805.229 210.328 805.229 229.272Z" fill="url(#paint53_linear_173_74)"/>
<path d="M805.229 131.786C805.229 150.73 789.871 166.087 770.926 166.087C751.981 166.087 736.622 150.73 736.622 131.786C736.622 112.842 751.981 97.4856 770.926 97.4856C789.871 97.4856 805.229 112.842 805.229 131.786Z" fill="url(#paint54_linear_173_74)"/>
<path d="M805.229 326.757C805.229 345.701 789.871 361.058 770.926 361.058C751.981 361.058 736.622 345.701 736.622 326.757C736.622 307.814 751.981 292.457 770.926 292.457C789.871 292.457 805.229 307.814 805.229 326.757Z" fill="url(#paint55_linear_173_74)"/>
<path d="M682.459 34.3005C682.459 53.2441 667.101 68.601 648.156 68.601C629.21 68.601 613.852 53.2441 613.852 34.3005C613.852 15.3568 629.21 0 648.156 0C667.101 0 682.459 15.3568 682.459 34.3005Z" fill="url(#paint56_linear_173_74)"/>
<path d="M682.459 229.272C682.459 248.215 667.101 263.572 648.156 263.572C629.21 263.572 613.852 248.215 613.852 229.272C613.852 210.328 629.21 194.971 648.156 194.971C667.101 194.971 682.459 210.328 682.459 229.272Z" fill="url(#paint57_linear_173_74)"/>
<path d="M682.459 131.786C682.459 150.73 667.101 166.087 648.156 166.087C629.21 166.087 613.852 150.73 613.852 131.786C613.852 112.842 629.21 97.4856 648.156 97.4856C667.101 97.4856 682.459 112.842 682.459 131.786Z" fill="url(#paint58_linear_173_74)"/>
<path d="M682.459 326.757C682.459 345.701 667.101 361.058 648.156 361.058C629.21 361.058 613.852 345.701 613.852 326.757C613.852 307.814 629.21 292.457 648.156 292.457C667.101 292.457 682.459 307.814 682.459 326.757Z" fill="url(#paint59_linear_173_74)"/>
<path d="M928 34.3005C928 53.2441 912.642 68.601 893.696 68.601C874.751 68.601 859.393 53.2441 859.393 34.3005C859.393 15.3568 874.751 0 893.696 0C912.642 0 928 15.3568 928 34.3005Z" fill="url(#paint60_linear_173_74)"/>
<path d="M928 229.272C928 248.215 912.642 263.572 893.696 263.572C874.751 263.572 859.393 248.215 859.393 229.272C859.393 210.328 874.751 194.971 893.696 194.971C912.642 194.971 928 210.328 928 229.272Z" fill="url(#paint61_linear_173_74)"/>
<path d="M928 131.786C928 150.73 912.642 166.087 893.696 166.087C874.751 166.087 859.393 150.73 859.393 131.786C859.393 112.842 874.751 97.4856 893.696 97.4856C912.642 97.4856 928 112.842 928 131.786Z" fill="url(#paint62_linear_173_74)"/>
<path d="M928 326.757C928 345.701 912.642 361.058 893.696 361.058C874.751 361.058 859.393 345.701 859.393 326.757C859.393 307.814 874.751 292.457 893.696 292.457C912.642 292.457 928 307.814 928 326.757Z" fill="url(#paint63_linear_173_74)"/>
<path d="M1448.85 899.87C1448.85 910.313 1440.38 918.779 1429.93 918.779C1419.47 918.779 1411 910.313 1411 899.87C1411 889.427 1419.47 880.962 1429.93 880.962C1440.38 880.962 1448.85 889.427 1448.85 899.87Z" fill="url(#paint64_linear_173_74)"/>
<path d="M1448.85 1007.35C1448.85 1017.79 1440.38 1026.26 1429.93 1026.26C1419.47 1026.26 1411 1017.79 1411 1007.35C1411 996.908 1419.47 988.442 1429.93 988.442C1440.38 988.442 1448.85 996.908 1448.85 1007.35Z" fill="url(#paint65_linear_173_74)"/>
<path d="M1448.85 953.611C1448.85 964.054 1440.38 972.519 1429.93 972.519C1419.47 972.519 1411 964.054 1411 953.611C1411 943.168 1419.47 934.702 1429.93 934.702C1440.38 934.702 1448.85 943.168 1448.85 953.611Z" fill="url(#paint66_linear_173_74)"/>
<path d="M1448.85 1061.09C1448.85 1071.53 1440.38 1080 1429.93 1080C1419.47 1080 1411 1071.53 1411 1061.09C1411 1050.65 1419.47 1042.18 1429.93 1042.18C1440.38 1042.18 1448.85 1050.65 1448.85 1061.09Z" fill="url(#paint67_linear_173_74)"/>
<path d="M1584.32 899.87C1584.32 910.313 1575.85 918.779 1565.4 918.779C1554.94 918.779 1546.47 910.313 1546.47 899.87C1546.47 889.427 1554.94 880.962 1565.4 880.962C1575.85 880.962 1584.32 889.427 1584.32 899.87Z" fill="url(#paint68_linear_173_74)"/>
<path d="M1584.32 1007.35C1584.32 1017.79 1575.85 1026.26 1565.4 1026.26C1554.94 1026.26 1546.47 1017.79 1546.47 1007.35C1546.47 996.908 1554.94 988.442 1565.4 988.442C1575.85 988.442 1584.32 996.908 1584.32 1007.35Z" fill="url(#paint69_linear_173_74)"/>
<path d="M1584.32 953.611C1584.32 964.054 1575.85 972.519 1565.4 972.519C1554.94 972.519 1546.47 964.054 1546.47 953.611C1546.47 943.168 1554.94 934.702 1565.4 934.702C1575.85 934.702 1584.32 943.168 1584.32 953.611Z" fill="url(#paint70_linear_173_74)"/>
<path d="M1584.32 1061.09C1584.32 1071.53 1575.85 1080 1565.4 1080C1554.94 1080 1546.47 1071.53 1546.47 1061.09C1546.47 1050.65 1554.94 1042.18 1565.4 1042.18C1575.85 1042.18 1584.32 1050.65 1584.32 1061.09Z" fill="url(#paint71_linear_173_74)"/>
<path d="M1516.59 899.87C1516.59 910.313 1508.11 918.779 1497.66 918.779C1487.21 918.779 1478.74 910.313 1478.74 899.87C1478.74 889.427 1487.21 880.962 1497.66 880.962C1508.11 880.962 1516.59 889.427 1516.59 899.87Z" fill="url(#paint72_linear_173_74)"/>
<path d="M1516.59 1007.35C1516.59 1017.79 1508.11 1026.26 1497.66 1026.26C1487.21 1026.26 1478.74 1017.79 1478.74 1007.35C1478.74 996.908 1487.21 988.442 1497.66 988.442C1508.11 988.442 1516.59 996.908 1516.59 1007.35Z" fill="url(#paint73_linear_173_74)"/>
<path d="M1516.59 953.611C1516.59 964.054 1508.11 972.519 1497.66 972.519C1487.21 972.519 1478.74 964.054 1478.74 953.611C1478.74 943.168 1487.21 934.702 1497.66 934.702C1508.11 934.702 1516.59 943.168 1516.59 953.611Z" fill="url(#paint74_linear_173_74)"/>
<path d="M1516.59 1061.09C1516.59 1071.53 1508.11 1080 1497.66 1080C1487.21 1080 1478.74 1071.53 1478.74 1061.09C1478.74 1050.65 1487.21 1042.18 1497.66 1042.18C1508.11 1042.18 1516.59 1050.65 1516.59 1061.09Z" fill="url(#paint75_linear_173_74)"/>
<path d="M1652.06 899.87C1652.06 910.313 1643.58 918.779 1633.13 918.779C1622.68 918.779 1614.21 910.313 1614.21 899.87C1614.21 889.427 1622.68 880.962 1633.13 880.962C1643.58 880.962 1652.06 889.427 1652.06 899.87Z" fill="url(#paint76_linear_173_74)"/>
<path d="M1652.06 1007.35C1652.06 1017.79 1643.58 1026.26 1633.13 1026.26C1622.68 1026.26 1614.21 1017.79 1614.21 1007.35C1614.21 996.908 1622.68 988.442 1633.13 988.442C1643.58 988.442 1652.06 996.908 1652.06 1007.35Z" fill="url(#paint77_linear_173_74)"/>
<path d="M1652.06 953.611C1652.06 964.054 1643.58 972.519 1633.13 972.519C1622.68 972.519 1614.21 964.054 1614.21 953.611C1614.21 943.168 1622.68 934.702 1633.13 934.702C1643.58 934.702 1652.06 943.168 1652.06 953.611Z" fill="url(#paint78_linear_173_74)"/>
<path d="M1652.06 1061.09C1652.06 1071.53 1643.58 1080 1633.13 1080C1622.68 1080 1614.21 1071.53 1614.21 1061.09C1614.21 1050.65 1622.68 1042.18 1633.13 1042.18C1643.58 1042.18 1652.06 1050.65 1652.06 1061.09Z" fill="url(#paint79_linear_173_74)"/>
<path d="M1719.79 899.87C1719.79 910.313 1711.32 918.779 1700.87 918.779C1690.42 918.779 1681.94 910.313 1681.94 899.87C1681.94 889.427 1690.42 880.962 1700.87 880.962C1711.32 880.962 1719.79 889.427 1719.79 899.87Z" fill="url(#paint80_linear_173_74)"/>
<path d="M1719.79 1007.35C1719.79 1017.79 1711.32 1026.26 1700.87 1026.26C1690.42 1026.26 1681.94 1017.79 1681.94 1007.35C1681.94 996.908 1690.42 988.442 1700.87 988.442C1711.32 988.442 1719.79 996.908 1719.79 1007.35Z" fill="url(#paint81_linear_173_74)"/>
<path d="M1719.79 953.611C1719.79 964.054 1711.32 972.519 1700.87 972.519C1690.42 972.519 1681.94 964.054 1681.94 953.611C1681.94 943.168 1690.42 934.702 1700.87 934.702C1711.32 934.702 1719.79 943.168 1719.79 953.611Z" fill="url(#paint82_linear_173_74)"/>
<path d="M1719.79 1061.09C1719.79 1071.53 1711.32 1080 1700.87 1080C1690.42 1080 1681.94 1071.53 1681.94 1061.09C1681.94 1050.65 1690.42 1042.18 1700.87 1042.18C1711.32 1042.18 1719.79 1050.65 1719.79 1061.09Z" fill="url(#paint83_linear_173_74)"/>
<path d="M1855.26 899.87C1855.26 910.313 1846.79 918.779 1836.34 918.779C1825.89 918.779 1817.41 910.313 1817.41 899.87C1817.41 889.427 1825.89 880.962 1836.34 880.962C1846.79 880.962 1855.26 889.427 1855.26 899.87Z" fill="url(#paint84_linear_173_74)"/>
<path d="M1855.26 1007.35C1855.26 1017.79 1846.79 1026.26 1836.34 1026.26C1825.89 1026.26 1817.41 1017.79 1817.41 1007.35C1817.41 996.908 1825.89 988.442 1836.34 988.442C1846.79 988.442 1855.26 996.908 1855.26 1007.35Z" fill="url(#paint85_linear_173_74)"/>
<path d="M1855.26 953.611C1855.26 964.054 1846.79 972.519 1836.34 972.519C1825.89 972.519 1817.41 964.054 1817.41 953.611C1817.41 943.168 1825.89 934.702 1836.34 934.702C1846.79 934.702 1855.26 943.168 1855.26 953.611Z" fill="url(#paint86_linear_173_74)"/>
<path d="M1855.26 1061.09C1855.26 1071.53 1846.79 1080 1836.34 1080C1825.89 1080 1817.41 1071.53 1817.41 1061.09C1817.41 1050.65 1825.89 1042.18 1836.34 1042.18C1846.79 1042.18 1855.26 1050.65 1855.26 1061.09Z" fill="url(#paint87_linear_173_74)"/>
<path d="M1787.53 899.87C1787.53 910.313 1779.06 918.779 1768.6 918.779C1758.15 918.779 1749.68 910.313 1749.68 899.87C1749.68 889.427 1758.15 880.962 1768.6 880.962C1779.06 880.962 1787.53 889.427 1787.53 899.87Z" fill="url(#paint88_linear_173_74)"/>
<path d="M1787.53 1007.35C1787.53 1017.79 1779.06 1026.26 1768.6 1026.26C1758.15 1026.26 1749.68 1017.79 1749.68 1007.35C1749.68 996.908 1758.15 988.442 1768.6 988.442C1779.06 988.442 1787.53 996.908 1787.53 1007.35Z" fill="url(#paint89_linear_173_74)"/>
<path d="M1787.53 953.611C1787.53 964.054 1779.06 972.519 1768.6 972.519C1758.15 972.519 1749.68 964.054 1749.68 953.611C1749.68 943.168 1758.15 934.702 1768.6 934.702C1779.06 934.702 1787.53 943.168 1787.53 953.611Z" fill="url(#paint90_linear_173_74)"/>
<path d="M1787.53 1061.09C1787.53 1071.53 1779.06 1080 1768.6 1080C1758.15 1080 1749.68 1071.53 1749.68 1061.09C1749.68 1050.65 1758.15 1042.18 1768.6 1042.18C1779.06 1042.18 1787.53 1050.65 1787.53 1061.09Z" fill="url(#paint91_linear_173_74)"/>
<path d="M1923 899.87C1923 910.313 1914.53 918.779 1904.07 918.779C1893.62 918.779 1885.15 910.313 1885.15 899.87C1885.15 889.427 1893.62 880.962 1904.07 880.962C1914.53 880.962 1923 889.427 1923 899.87Z" fill="url(#paint92_linear_173_74)"/>
<path d="M1923 1007.35C1923 1017.79 1914.53 1026.26 1904.07 1026.26C1893.62 1026.26 1885.15 1017.79 1885.15 1007.35C1885.15 996.908 1893.62 988.442 1904.07 988.442C1914.53 988.442 1923 996.908 1923 1007.35Z" fill="url(#paint93_linear_173_74)"/>
<path d="M1923 953.611C1923 964.054 1914.53 972.519 1904.07 972.519C1893.62 972.519 1885.15 964.054 1885.15 953.611C1885.15 943.168 1893.62 934.702 1904.07 934.702C1914.53 934.702 1923 943.168 1923 953.611Z" fill="url(#paint94_linear_173_74)"/>
<path d="M1923 1061.09C1923 1071.53 1914.53 1080 1904.07 1080C1893.62 1080 1885.15 1071.53 1885.15 1061.09C1885.15 1050.65 1893.62 1042.18 1904.07 1042.18C1914.53 1042.18 1923 1050.65 1923 1061.09Z" fill="url(#paint95_linear_173_74)"/>
<path d="M1448.85 684.909C1448.85 695.352 1440.38 703.817 1429.93 703.817C1419.47 703.817 1411 695.352 1411 684.909C1411 674.466 1419.47 666 1429.93 666C1440.38 666 1448.85 674.466 1448.85 684.909Z" fill="url(#paint96_linear_173_74)"/>
<path d="M1448.85 792.389C1448.85 802.832 1440.38 811.298 1429.93 811.298C1419.47 811.298 1411 802.832 1411 792.389C1411 781.946 1419.47 773.481 1429.93 773.481C1440.38 773.481 1448.85 781.946 1448.85 792.389Z" fill="url(#paint97_linear_173_74)"/>
<path d="M1448.85 738.649C1448.85 749.092 1440.38 757.558 1429.93 757.558C1419.47 757.558 1411 749.092 1411 738.649C1411 728.206 1419.47 719.74 1429.93 719.74C1440.38 719.74 1448.85 728.206 1448.85 738.649Z" fill="url(#paint98_linear_173_74)"/>
<path d="M1448.85 846.13C1448.85 856.573 1440.38 865.038 1429.93 865.038C1419.47 865.038 1411 856.573 1411 846.13C1411 835.687 1419.47 827.221 1429.93 827.221C1440.38 827.221 1448.85 835.687 1448.85 846.13Z" fill="url(#paint99_linear_173_74)"/>
<path d="M1584.32 684.909C1584.32 695.352 1575.85 703.817 1565.4 703.817C1554.94 703.817 1546.47 695.352 1546.47 684.909C1546.47 674.466 1554.94 666 1565.4 666C1575.85 666 1584.32 674.466 1584.32 684.909Z" fill="url(#paint100_linear_173_74)"/>
<path d="M1584.32 792.389C1584.32 802.832 1575.85 811.298 1565.4 811.298C1554.94 811.298 1546.47 802.832 1546.47 792.389C1546.47 781.946 1554.94 773.481 1565.4 773.481C1575.85 773.481 1584.32 781.946 1584.32 792.389Z" fill="url(#paint101_linear_173_74)"/>
<path d="M1584.32 738.649C1584.32 749.092 1575.85 757.558 1565.4 757.558C1554.94 757.558 1546.47 749.092 1546.47 738.649C1546.47 728.206 1554.94 719.74 1565.4 719.74C1575.85 719.74 1584.32 728.206 1584.32 738.649Z" fill="url(#paint102_linear_173_74)"/>
<path d="M1584.32 846.13C1584.32 856.573 1575.85 865.038 1565.4 865.038C1554.94 865.038 1546.47 856.573 1546.47 846.13C1546.47 835.687 1554.94 827.221 1565.4 827.221C1575.85 827.221 1584.32 835.687 1584.32 846.13Z" fill="url(#paint103_linear_173_74)"/>
<path d="M1516.59 684.909C1516.59 695.352 1508.11 703.817 1497.66 703.817C1487.21 703.817 1478.74 695.352 1478.74 684.909C1478.74 674.466 1487.21 666 1497.66 666C1508.11 666 1516.59 674.466 1516.59 684.909Z" fill="url(#paint104_linear_173_74)"/>
<path d="M1516.59 792.389C1516.59 802.832 1508.11 811.298 1497.66 811.298C1487.21 811.298 1478.74 802.832 1478.74 792.389C1478.74 781.946 1487.21 773.481 1497.66 773.481C1508.11 773.481 1516.59 781.946 1516.59 792.389Z" fill="url(#paint105_linear_173_74)"/>
<path d="M1516.59 738.649C1516.59 749.092 1508.11 757.558 1497.66 757.558C1487.21 757.558 1478.74 749.092 1478.74 738.649C1478.74 728.206 1487.21 719.74 1497.66 719.74C1508.11 719.74 1516.59 728.206 1516.59 738.649Z" fill="url(#paint106_linear_173_74)"/>
<path d="M1516.59 846.13C1516.59 856.573 1508.11 865.038 1497.66 865.038C1487.21 865.038 1478.74 856.573 1478.74 846.13C1478.74 835.687 1487.21 827.221 1497.66 827.221C1508.11 827.221 1516.59 835.687 1516.59 846.13Z" fill="url(#paint107_linear_173_74)"/>
<path d="M1652.06 684.909C1652.06 695.352 1643.58 703.817 1633.13 703.817C1622.68 703.817 1614.21 695.352 1614.21 684.909C1614.21 674.466 1622.68 666 1633.13 666C1643.58 666 1652.06 674.466 1652.06 684.909Z" fill="url(#paint108_linear_173_74)"/>
<path d="M1652.06 792.389C1652.06 802.832 1643.58 811.298 1633.13 811.298C1622.68 811.298 1614.21 802.832 1614.21 792.389C1614.21 781.946 1622.68 773.481 1633.13 773.481C1643.58 773.481 1652.06 781.946 1652.06 792.389Z" fill="url(#paint109_linear_173_74)"/>
<path d="M1652.06 738.649C1652.06 749.092 1643.58 757.558 1633.13 757.558C1622.68 757.558 1614.21 749.092 1614.21 738.649C1614.21 728.206 1622.68 719.74 1633.13 719.74C1643.58 719.74 1652.06 728.206 1652.06 738.649Z" fill="url(#paint110_linear_173_74)"/>
<path d="M1652.06 846.13C1652.06 856.573 1643.58 865.038 1633.13 865.038C1622.68 865.038 1614.21 856.573 1614.21 846.13C1614.21 835.687 1622.68 827.221 1633.13 827.221C1643.58 827.221 1652.06 835.687 1652.06 846.13Z" fill="url(#paint111_linear_173_74)"/>
<path d="M1719.79 684.909C1719.79 695.352 1711.32 703.817 1700.87 703.817C1690.42 703.817 1681.94 695.352 1681.94 684.909C1681.94 674.466 1690.42 666 1700.87 666C1711.32 666 1719.79 674.466 1719.79 684.909Z" fill="url(#paint112_linear_173_74)"/>
<path d="M1719.79 792.389C1719.79 802.832 1711.32 811.298 1700.87 811.298C1690.42 811.298 1681.94 802.832 1681.94 792.389C1681.94 781.946 1690.42 773.481 1700.87 773.481C1711.32 773.481 1719.79 781.946 1719.79 792.389Z" fill="url(#paint113_linear_173_74)"/>
<path d="M1719.79 738.649C1719.79 749.092 1711.32 757.558 1700.87 757.558C1690.42 757.558 1681.94 749.092 1681.94 738.649C1681.94 728.206 1690.42 719.74 1700.87 719.74C1711.32 719.74 1719.79 728.206 1719.79 738.649Z" fill="url(#paint114_linear_173_74)"/>
<path d="M1719.79 846.13C1719.79 856.573 1711.32 865.038 1700.87 865.038C1690.42 865.038 1681.94 856.573 1681.94 846.13C1681.94 835.687 1690.42 827.221 1700.87 827.221C1711.32 827.221 1719.79 835.687 1719.79 846.13Z" fill="url(#paint115_linear_173_74)"/>
<path d="M1855.26 684.909C1855.26 695.352 1846.79 703.817 1836.34 703.817C1825.89 703.817 1817.41 695.352 1817.41 684.909C1817.41 674.466 1825.89 666 1836.34 666C1846.79 666 1855.26 674.466 1855.26 684.909Z" fill="url(#paint116_linear_173_74)"/>
<path d="M1855.26 792.389C1855.26 802.832 1846.79 811.298 1836.34 811.298C1825.89 811.298 1817.41 802.832 1817.41 792.389C1817.41 781.946 1825.89 773.481 1836.34 773.481C1846.79 773.481 1855.26 781.946 1855.26 792.389Z" fill="url(#paint117_linear_173_74)"/>
<path d="M1855.26 738.649C1855.26 749.092 1846.79 757.558 1836.34 757.558C1825.89 757.558 1817.41 749.092 1817.41 738.649C1817.41 728.206 1825.89 719.74 1836.34 719.74C1846.79 719.74 1855.26 728.206 1855.26 738.649Z" fill="url(#paint118_linear_173_74)"/>
<path d="M1855.26 846.13C1855.26 856.573 1846.79 865.038 1836.34 865.038C1825.89 865.038 1817.41 856.573 1817.41 846.13C1817.41 835.687 1825.89 827.221 1836.34 827.221C1846.79 827.221 1855.26 835.687 1855.26 846.13Z" fill="url(#paint119_linear_173_74)"/>
<path d="M1787.53 684.909C1787.53 695.352 1779.06 703.817 1768.6 703.817C1758.15 703.817 1749.68 695.352 1749.68 684.909C1749.68 674.466 1758.15 666 1768.6 666C1779.06 666 1787.53 674.466 1787.53 684.909Z" fill="url(#paint120_linear_173_74)"/>
<path d="M1787.53 792.389C1787.53 802.832 1779.06 811.298 1768.6 811.298C1758.15 811.298 1749.68 802.832 1749.68 792.389C1749.68 781.946 1758.15 773.481 1768.6 773.481C1779.06 773.481 1787.53 781.946 1787.53 792.389Z" fill="url(#paint121_linear_173_74)"/>
<path d="M1787.53 738.649C1787.53 749.092 1779.06 757.558 1768.6 757.558C1758.15 757.558 1749.68 749.092 1749.68 738.649C1749.68 728.206 1758.15 719.74 1768.6 719.74C1779.06 719.74 1787.53 728.206 1787.53 738.649Z" fill="url(#paint122_linear_173_74)"/>
<path d="M1787.53 846.13C1787.53 856.573 1779.06 865.038 1768.6 865.038C1758.15 865.038 1749.68 856.573 1749.68 846.13C1749.68 835.687 1758.15 827.221 1768.6 827.221C1779.06 827.221 1787.53 835.687 1787.53 846.13Z" fill="url(#paint123_linear_173_74)"/>
<path d="M1923 684.909C1923 695.352 1914.53 703.817 1904.07 703.817C1893.62 703.817 1885.15 695.352 1885.15 684.909C1885.15 674.466 1893.62 666 1904.07 666C1914.53 666 1923 674.466 1923 684.909Z" fill="url(#paint124_linear_173_74)"/>
<path d="M1923 792.389C1923 802.832 1914.53 811.298 1904.07 811.298C1893.62 811.298 1885.15 802.832 1885.15 792.389C1885.15 781.946 1893.62 773.481 1904.07 773.481C1914.53 773.481 1923 781.946 1923 792.389Z" fill="url(#paint125_linear_173_74)"/>
<path d="M1923 738.649C1923 749.092 1914.53 757.558 1904.07 757.558C1893.62 757.558 1885.15 749.092 1885.15 738.649C1885.15 728.206 1893.62 719.74 1904.07 719.74C1914.53 719.74 1923 728.206 1923 738.649Z" fill="url(#paint126_linear_173_74)"/>
<path d="M1923 846.13C1923 856.573 1914.53 865.038 1904.07 865.038C1893.62 865.038 1885.15 856.573 1885.15 846.13C1885.15 835.687 1893.62 827.221 1904.07 827.221C1914.53 827.221 1923 835.687 1923 846.13Z" fill="url(#paint127_linear_173_74)"/>
</g>
<defs>
<linearGradient id="paint0_linear_173_74" x1="-192.715" y1="-122.237" x2="918.292" y2="1266.53" gradientUnits="userSpaceOnUse">
<stop stop-color="#8E98A8"/>
<stop offset="1" stop-color="#D9D9D9" stop-opacity="0"/>
</linearGradient>
<linearGradient id="paint1_linear_173_74" x1="-192.715" y1="-122.237" x2="918.292" y2="1266.53" gradientUnits="userSpaceOnUse">
<stop stop-color="#8E98A8"/>
<stop offset="1" stop-color="#D9D9D9" stop-opacity="0"/>
</linearGradient>
<linearGradient id="paint2_linear_173_74" x1="-192.715" y1="-122.237" x2="918.292" y2="1266.53" gradientUnits="userSpaceOnUse">
<stop stop-color="#8E98A8"/>
<stop offset="1" stop-color="#D9D9D9" stop-opacity="0"/>
</linearGradient>
<linearGradient id="paint3_linear_173_74" x1="-192.715" y1="-122.237" x2="918.292" y2="1266.53" gradientUnits="userSpaceOnUse">
<stop stop-color="#8E98A8"/>
<stop offset="1" stop-color="#D9D9D9" stop-opacity="0"/>
</linearGradient>
<linearGradient id="paint4_linear_173_74" x1="-192.715" y1="-122.237" x2="918.292" y2="1266.53" gradientUnits="userSpaceOnUse">
<stop stop-color="#8E98A8"/>
<stop offset="1" stop-color="#D9D9D9" stop-opacity="0"/>
</linearGradient>
<linearGradient id="paint5_linear_173_74" x1="-192.715" y1="-122.237" x2="918.292" y2="1266.53" gradientUnits="userSpaceOnUse">
<stop stop-color="#8E98A8"/>
<stop offset="1" stop-color="#D9D9D9" stop-opacity="0"/>
</linearGradient>
<linearGradient id="paint6_linear_173_74" x1="-192.715" y1="-122.237" x2="918.292" y2="1266.53" gradientUnits="userSpaceOnUse">
<stop stop-color="#8E98A8"/>
<stop offset="1" stop-color="#D9D9D9" stop-opacity="0"/>
</linearGradient>
<linearGradient id="paint7_linear_173_74" x1="-192.715" y1="-122.237" x2="918.292" y2="1266.53" gradientUnits="userSpaceOnUse">
<stop stop-color="#8E98A8"/>
<stop offset="1" stop-color="#D9D9D9" stop-opacity="0"/>
</linearGradient>
<linearGradient id="paint8_linear_173_74" x1="-192.715" y1="-122.237" x2="918.292" y2="1266.53" gradientUnits="userSpaceOnUse">
<stop stop-color="#8E98A8"/>
<stop offset="1" stop-color="#D9D9D9" stop-opacity="0"/>
</linearGradient>
<linearGradient id="paint9_linear_173_74" x1="-192.715" y1="-122.237" x2="918.292" y2="1266.53" gradientUnits="userSpaceOnUse">
<stop stop-color="#8E98A8"/>
<stop offset="1" stop-color="#D9D9D9" stop-opacity="0"/>
</linearGradient>
<linearGradient id="paint10_linear_173_74" x1="-192.715" y1="-122.237" x2="918.292" y2="1266.53" gradientUnits="userSpaceOnUse">
<stop stop-color="#8E98A8"/>
<stop offset="1" stop-color="#D9D9D9" stop-opacity="0"/>
</linearGradient>
<linearGradient id="paint11_linear_173_74" x1="-192.715" y1="-122.237" x2="918.292" y2="1266.53" gradientUnits="userSpaceOnUse">
<stop stop-color="#8E98A8"/>
<stop offset="1" stop-color="#D9D9D9" stop-opacity="0"/>
</linearGradient>
<linearGradient id="paint12_linear_173_74" x1="-192.715" y1="-122.237" x2="918.292" y2="1266.53" gradientUnits="userSpaceOnUse">
<stop stop-color="#8E98A8"/>
<stop offset="1" stop-color="#D9D9D9" stop-opacity="0"/>
</linearGradient>
<linearGradient id="paint13_linear_173_74" x1="-192.715" y1="-122.237" x2="918.292" y2="1266.53" gradientUnits="userSpaceOnUse">
<stop stop-color="#8E98A8"/>
<stop offset="1" stop-color="#D9D9D9" stop-opacity="0"/>
</linearGradient>
<linearGradient id="paint14_linear_173_74" x1="-192.715" y1="-122.237" x2="918.292" y2="1266.53" gradientUnits="userSpaceOnUse">
<stop stop-color="#8E98A8"/>
<stop offset="1" stop-color="#D9D9D9" stop-opacity="0"/>
</linearGradient>
<linearGradient id="paint15_linear_173_74" x1="-192.715" y1="-122.237" x2="918.292" y2="1266.53" gradientUnits="userSpaceOnUse">
<stop stop-color="#8E98A8"/>
<stop offset="1" stop-color="#D9D9D9" stop-opacity="0"/>
</linearGradient>
<linearGradient id="paint16_linear_173_74" x1="-192.715" y1="-122.237" x2="918.292" y2="1266.53" gradientUnits="userSpaceOnUse">
<stop stop-color="#8E98A8"/>
<stop offset="1" stop-color="#D9D9D9" stop-opacity="0"/>
</linearGradient>
<linearGradient id="paint17_linear_173_74" x1="-192.715" y1="-122.237" x2="918.292" y2="1266.53" gradientUnits="userSpaceOnUse">
<stop stop-color="#8E98A8"/>
<stop offset="1" stop-color="#D9D9D9" stop-opacity="0"/>
</linearGradient>
<linearGradient id="paint18_linear_173_74" x1="-192.715" y1="-122.237" x2="918.292" y2="1266.53" gradientUnits="userSpaceOnUse">
<stop stop-color="#8E98A8"/>
<stop offset="1" stop-color="#D9D9D9" stop-opacity="0"/>
</linearGradient>
<linearGradient id="paint19_linear_173_74" x1="-192.715" y1="-122.237" x2="918.292" y2="1266.53" gradientUnits="userSpaceOnUse">
<stop stop-color="#8E98A8"/>
<stop offset="1" stop-color="#D9D9D9" stop-opacity="0"/>
</linearGradient>
<linearGradient id="paint20_linear_173_74" x1="-192.715" y1="-122.237" x2="918.292" y2="1266.53" gradientUnits="userSpaceOnUse">
<stop stop-color="#8E98A8"/>
<stop offset="1" stop-color="#D9D9D9" stop-opacity="0"/>
</linearGradient>
<linearGradient id="paint21_linear_173_74" x1="-192.715" y1="-122.237" x2="918.292" y2="1266.53" gradientUnits="userSpaceOnUse">
<stop stop-color="#8E98A8"/>
<stop offset="1" stop-color="#D9D9D9" stop-opacity="0"/>
</linearGradient>
<linearGradient id="paint22_linear_173_74" x1="-192.715" y1="-122.237" x2="918.292" y2="1266.53" gradientUnits="userSpaceOnUse">
<stop stop-color="#8E98A8"/>
<stop offset="1" stop-color="#D9D9D9" stop-opacity="0"/>
</linearGradient>
<linearGradient id="paint23_linear_173_74" x1="-192.715" y1="-122.237" x2="918.292" y2="1266.53" gradientUnits="userSpaceOnUse">
<stop stop-color="#8E98A8"/>
<stop offset="1" stop-color="#D9D9D9" stop-opacity="0"/>
</linearGradient>
<linearGradient id="paint24_linear_173_74" x1="-192.715" y1="-122.237" x2="918.292" y2="1266.53" gradientUnits="userSpaceOnUse">
<stop stop-color="#8E98A8"/>
<stop offset="1" stop-color="#D9D9D9" stop-opacity="0"/>
</linearGradient>
<linearGradient id="paint25_linear_173_74" x1="-192.715" y1="-122.237" x2="918.292" y2="1266.53" gradientUnits="userSpaceOnUse">
<stop stop-color="#8E98A8"/>
<stop offset="1" stop-color="#D9D9D9" stop-opacity="0"/>
</linearGradient>
<linearGradient id="paint26_linear_173_74" x1="-192.715" y1="-122.237" x2="918.292" y2="1266.53" gradientUnits="userSpaceOnUse">
<stop stop-color="#8E98A8"/>
<stop offset="1" stop-color="#D9D9D9" stop-opacity="0"/>
</linearGradient>
<linearGradient id="paint27_linear_173_74" x1="-192.715" y1="-122.237" x2="918.292" y2="1266.53" gradientUnits="userSpaceOnUse">
<stop stop-color="#8E98A8"/>
<stop offset="1" stop-color="#D9D9D9" stop-opacity="0"/>
</linearGradient>
<linearGradient id="paint28_linear_173_74" x1="-192.715" y1="-122.237" x2="918.292" y2="1266.53" gradientUnits="userSpaceOnUse">
<stop stop-color="#8E98A8"/>
<stop offset="1" stop-color="#D9D9D9" stop-opacity="0"/>
</linearGradient>
<linearGradient id="paint29_linear_173_74" x1="-192.715" y1="-122.237" x2="918.292" y2="1266.53" gradientUnits="userSpaceOnUse">
<stop stop-color="#8E98A8"/>
<stop offset="1" stop-color="#D9D9D9" stop-opacity="0"/>
</linearGradient>
<linearGradient id="paint30_linear_173_74" x1="-192.715" y1="-122.237" x2="918.292" y2="1266.53" gradientUnits="userSpaceOnUse">
<stop stop-color="#8E98A8"/>
<stop offset="1" stop-color="#D9D9D9" stop-opacity="0"/>
</linearGradient>
<linearGradient id="paint31_linear_173_74" x1="-192.715" y1="-122.237" x2="918.292" y2="1266.53" gradientUnits="userSpaceOnUse">
<stop stop-color="#8E98A8"/>
<stop offset="1" stop-color="#D9D9D9" stop-opacity="0"/>
</linearGradient>
<linearGradient id="paint32_linear_173_74" x1="-192.715" y1="-122.237" x2="918.292" y2="1266.53" gradientUnits="userSpaceOnUse">
<stop stop-color="#8E98A8"/>
<stop offset="1" stop-color="#D9D9D9" stop-opacity="0"/>
</linearGradient>
<linearGradient id="paint33_linear_173_74" x1="-192.715" y1="-122.237" x2="918.292" y2="1266.53" gradientUnits="userSpaceOnUse">
<stop stop-color="#8E98A8"/>
<stop offset="1" stop-color="#D9D9D9" stop-opacity="0"/>
</linearGradient>
<linearGradient id="paint34_linear_173_74" x1="-192.715" y1="-122.237" x2="918.292" y2="1266.53" gradientUnits="userSpaceOnUse">
<stop stop-color="#8E98A8"/>
<stop offset="1" stop-color="#D9D9D9" stop-opacity="0"/>
</linearGradient>
<linearGradient id="paint35_linear_173_74" x1="-192.715" y1="-122.237" x2="918.292" y2="1266.53" gradientUnits="userSpaceOnUse">
<stop stop-color="#8E98A8"/>
<stop offset="1" stop-color="#D9D9D9" stop-opacity="0"/>
</linearGradient>
<linearGradient id="paint36_linear_173_74" x1="-192.715" y1="-122.237" x2="918.292" y2="1266.53" gradientUnits="userSpaceOnUse">
<stop stop-color="#8E98A8"/>
<stop offset="1" stop-color="#D9D9D9" stop-opacity="0"/>
</linearGradient>
<linearGradient id="paint37_linear_173_74" x1="-192.715" y1="-122.237" x2="918.292" y2="1266.53" gradientUnits="userSpaceOnUse">
<stop stop-color="#8E98A8"/>
<stop offset="1" stop-color="#D9D9D9" stop-opacity="0"/>
</linearGradient>
<linearGradient id="paint38_linear_173_74" x1="-192.715" y1="-122.237" x2="918.292" y2="1266.53" gradientUnits="userSpaceOnUse">
<stop stop-color="#8E98A8"/>
<stop offset="1" stop-color="#D9D9D9" stop-opacity="0"/>
</linearGradient>
<linearGradient id="paint39_linear_173_74" x1="-192.715" y1="-122.237" x2="918.292" y2="1266.53" gradientUnits="userSpaceOnUse">
<stop stop-color="#8E98A8"/>
<stop offset="1" stop-color="#D9D9D9" stop-opacity="0"/>
</linearGradient>
<linearGradient id="paint40_linear_173_74" x1="-192.715" y1="-122.237" x2="918.292" y2="1266.53" gradientUnits="userSpaceOnUse">
<stop stop-color="#8E98A8"/>
<stop offset="1" stop-color="#D9D9D9" stop-opacity="0"/>
</linearGradient>
<linearGradient id="paint41_linear_173_74" x1="-192.715" y1="-122.237" x2="918.292" y2="1266.53" gradientUnits="userSpaceOnUse">
<stop stop-color="#8E98A8"/>
<stop offset="1" stop-color="#D9D9D9" stop-opacity="0"/>
</linearGradient>
<linearGradient id="paint42_linear_173_74" x1="-192.715" y1="-122.237" x2="918.292" y2="1266.53" gradientUnits="userSpaceOnUse">
<stop stop-color="#8E98A8"/>
<stop offset="1" stop-color="#D9D9D9" stop-opacity="0"/>
</linearGradient>
<linearGradient id="paint43_linear_173_74" x1="-192.715" y1="-122.237" x2="918.292" y2="1266.53" gradientUnits="userSpaceOnUse">
<stop stop-color="#8E98A8"/>
<stop offset="1" stop-color="#D9D9D9" stop-opacity="0"/>
</linearGradient>
<linearGradient id="paint44_linear_173_74" x1="-192.715" y1="-122.237" x2="918.292" y2="1266.53" gradientUnits="userSpaceOnUse">
<stop stop-color="#8E98A8"/>
<stop offset="1" stop-color="#D9D9D9" stop-opacity="0"/>
</linearGradient>
<linearGradient id="paint45_linear_173_74" x1="-192.715" y1="-122.237" x2="918.292" y2="1266.53" gradientUnits="userSpaceOnUse">
<stop stop-color="#8E98A8"/>
<stop offset="1" stop-color="#D9D9D9" stop-opacity="0"/>
</linearGradient>
<linearGradient id="paint46_linear_173_74" x1="-192.715" y1="-122.237" x2="918.292" y2="1266.53" gradientUnits="userSpaceOnUse">
<stop stop-color="#8E98A8"/>
<stop offset="1" stop-color="#D9D9D9" stop-opacity="0"/>
</linearGradient>
<linearGradient id="paint47_linear_173_74" x1="-192.715" y1="-122.237" x2="918.292" y2="1266.53" gradientUnits="userSpaceOnUse">
<stop stop-color="#8E98A8"/>
<stop offset="1" stop-color="#D9D9D9" stop-opacity="0"/>
</linearGradient>
<linearGradient id="paint48_linear_173_74" x1="-192.715" y1="-122.237" x2="918.292" y2="1266.53" gradientUnits="userSpaceOnUse">
<stop stop-color="#8E98A8"/>
<stop offset="1" stop-color="#D9D9D9" stop-opacity="0"/>
</linearGradient>
<linearGradient id="paint49_linear_173_74" x1="-192.715" y1="-122.237" x2="918.292" y2="1266.53" gradientUnits="userSpaceOnUse">
<stop stop-color="#8E98A8"/>
<stop offset="1" stop-color="#D9D9D9" stop-opacity="0"/>
</linearGradient>
<linearGradient id="paint50_linear_173_74" x1="-192.715" y1="-122.237" x2="918.292" y2="1266.53" gradientUnits="userSpaceOnUse">
<stop stop-color="#8E98A8"/>
<stop offset="1" stop-color="#D9D9D9" stop-opacity="0"/>
</linearGradient>
<linearGradient id="paint51_linear_173_74" x1="-192.715" y1="-122.237" x2="918.292" y2="1266.53" gradientUnits="userSpaceOnUse">
<stop stop-color="#8E98A8"/>
<stop offset="1" stop-color="#D9D9D9" stop-opacity="0"/>
</linearGradient>
<linearGradient id="paint52_linear_173_74" x1="-192.715" y1="-122.237" x2="918.292" y2="1266.53" gradientUnits="userSpaceOnUse">
<stop stop-color="#8E98A8"/>
<stop offset="1" stop-color="#D9D9D9" stop-opacity="0"/>
</linearGradient>
<linearGradient id="paint53_linear_173_74" x1="-192.715" y1="-122.237" x2="918.292" y2="1266.53" gradientUnits="userSpaceOnUse">
<stop stop-color="#8E98A8"/>
<stop offset="1" stop-color="#D9D9D9" stop-opacity="0"/>
</linearGradient>
<linearGradient id="paint54_linear_173_74" x1="-192.715" y1="-122.237" x2="918.292" y2="1266.53" gradientUnits="userSpaceOnUse">
<stop stop-color="#8E98A8"/>
<stop offset="1" stop-color="#D9D9D9" stop-opacity="0"/>
</linearGradient>
<linearGradient id="paint55_linear_173_74" x1="-192.715" y1="-122.237" x2="918.292" y2="1266.53" gradientUnits="userSpaceOnUse">
<stop stop-color="#8E98A8"/>
<stop offset="1" stop-color="#D9D9D9" stop-opacity="0"/>
</linearGradient>
<linearGradient id="paint56_linear_173_74" x1="-192.715" y1="-122.237" x2="918.292" y2="1266.53" gradientUnits="userSpaceOnUse">
<stop stop-color="#8E98A8"/>
<stop offset="1" stop-color="#D9D9D9" stop-opacity="0"/>
</linearGradient>
<linearGradient id="paint57_linear_173_74" x1="-192.715" y1="-122.237" x2="918.292" y2="1266.53" gradientUnits="userSpaceOnUse">
<stop stop-color="#8E98A8"/>
<stop offset="1" stop-color="#D9D9D9" stop-opacity="0"/>
</linearGradient>
<linearGradient id="paint58_linear_173_74" x1="-192.715" y1="-122.237" x2="918.292" y2="1266.53" gradientUnits="userSpaceOnUse">
<stop stop-color="#8E98A8"/>
<stop offset="1" stop-color="#D9D9D9" stop-opacity="0"/>
</linearGradient>
<linearGradient id="paint59_linear_173_74" x1="-192.715" y1="-122.237" x2="918.292" y2="1266.53" gradientUnits="userSpaceOnUse">
<stop stop-color="#8E98A8"/>
<stop offset="1" stop-color="#D9D9D9" stop-opacity="0"/>
</linearGradient>
<linearGradient id="paint60_linear_173_74" x1="-192.715" y1="-122.237" x2="918.292" y2="1266.53" gradientUnits="userSpaceOnUse">
<stop stop-color="#8E98A8"/>
<stop offset="1" stop-color="#D9D9D9" stop-opacity="0"/>
</linearGradient>
<linearGradient id="paint61_linear_173_74" x1="-192.715" y1="-122.237" x2="918.292" y2="1266.53" gradientUnits="userSpaceOnUse">
<stop stop-color="#8E98A8"/>
<stop offset="1" stop-color="#D9D9D9" stop-opacity="0"/>
</linearGradient>
<linearGradient id="paint62_linear_173_74" x1="-192.715" y1="-122.237" x2="918.292" y2="1266.53" gradientUnits="userSpaceOnUse">
<stop stop-color="#8E98A8"/>
<stop offset="1" stop-color="#D9D9D9" stop-opacity="0"/>
</linearGradient>
<linearGradient id="paint63_linear_173_74" x1="-192.715" y1="-122.237" x2="918.292" y2="1266.53" gradientUnits="userSpaceOnUse">
<stop stop-color="#8E98A8"/>
<stop offset="1" stop-color="#D9D9D9" stop-opacity="0"/>
</linearGradient>
<linearGradient id="paint64_linear_173_74" x1="1948.07" y1="1102.51" x2="1540.28" y2="736.92" gradientUnits="userSpaceOnUse">
<stop stop-color="#EA63B4"/>
<stop offset="1" stop-color="#D9D9D9" stop-opacity="0"/>
</linearGradient>
<linearGradient id="paint65_linear_173_74" x1="1948.07" y1="1102.51" x2="1540.28" y2="736.92" gradientUnits="userSpaceOnUse">
<stop stop-color="#EA63B4"/>
<stop offset="1" stop-color="#D9D9D9" stop-opacity="0"/>
</linearGradient>
<linearGradient id="paint66_linear_173_74" x1="1948.07" y1="1102.51" x2="1540.28" y2="736.92" gradientUnits="userSpaceOnUse">
<stop stop-color="#EA63B4"/>
<stop offset="1" stop-color="#D9D9D9" stop-opacity="0"/>
</linearGradient>
<linearGradient id="paint67_linear_173_74" x1="1948.07" y1="1102.51" x2="1540.28" y2="736.92" gradientUnits="userSpaceOnUse">
<stop stop-color="#EA63B4"/>
<stop offset="1" stop-color="#D9D9D9" stop-opacity="0"/>
</linearGradient>
<linearGradient id="paint68_linear_173_74" x1="1948.07" y1="1102.51" x2="1540.28" y2="736.92" gradientUnits="userSpaceOnUse">
<stop stop-color="#EA63B4"/>
<stop offset="1" stop-color="#D9D9D9" stop-opacity="0"/>
</linearGradient>
<linearGradient id="paint69_linear_173_74" x1="1948.07" y1="1102.51" x2="1540.28" y2="736.92" gradientUnits="userSpaceOnUse">
<stop stop-color="#EA63B4"/>
<stop offset="1" stop-color="#D9D9D9" stop-opacity="0"/>
</linearGradient>
<linearGradient id="paint70_linear_173_74" x1="1948.07" y1="1102.51" x2="1540.28" y2="736.92" gradientUnits="userSpaceOnUse">
<stop stop-color="#EA63B4"/>
<stop offset="1" stop-color="#D9D9D9" stop-opacity="0"/>
</linearGradient>
<linearGradient id="paint71_linear_173_74" x1="1948.07" y1="1102.51" x2="1540.28" y2="736.92" gradientUnits="userSpaceOnUse">
<stop stop-color="#EA63B4"/>
<stop offset="1" stop-color="#D9D9D9" stop-opacity="0"/>
</linearGradient>
<linearGradient id="paint72_linear_173_74" x1="1948.07" y1="1102.51" x2="1540.28" y2="736.92" gradientUnits="userSpaceOnUse">
<stop stop-color="#EA63B4"/>
<stop offset="1" stop-color="#D9D9D9" stop-opacity="0"/>
</linearGradient>
<linearGradient id="paint73_linear_173_74" x1="1948.07" y1="1102.51" x2="1540.28" y2="736.92" gradientUnits="userSpaceOnUse">
<stop stop-color="#EA63B4"/>
<stop offset="1" stop-color="#D9D9D9" stop-opacity="0"/>
</linearGradient>
<linearGradient id="paint74_linear_173_74" x1="1948.07" y1="1102.51" x2="1540.28" y2="736.92" gradientUnits="userSpaceOnUse">
<stop stop-color="#EA63B4"/>
<stop offset="1" stop-color="#D9D9D9" stop-opacity="0"/>
</linearGradient>
<linearGradient id="paint75_linear_173_74" x1="1948.07" y1="1102.51" x2="1540.28" y2="736.92" gradientUnits="userSpaceOnUse">
<stop stop-color="#EA63B4"/>
<stop offset="1" stop-color="#D9D9D9" stop-opacity="0"/>
</linearGradient>
<linearGradient id="paint76_linear_173_74" x1="1948.07" y1="1102.51" x2="1540.28" y2="736.92" gradientUnits="userSpaceOnUse">
<stop stop-color="#EA63B4"/>
<stop offset="1" stop-color="#D9D9D9" stop-opacity="0"/>
</linearGradient>
<linearGradient id="paint77_linear_173_74" x1="1948.07" y1="1102.51" x2="1540.28" y2="736.92" gradientUnits="userSpaceOnUse">
<stop stop-color="#EA63B4"/>
<stop offset="1" stop-color="#D9D9D9" stop-opacity="0"/>
</linearGradient>
<linearGradient id="paint78_linear_173_74" x1="1948.07" y1="1102.51" x2="1540.28" y2="736.92" gradientUnits="userSpaceOnUse">
<stop stop-color="#EA63B4"/>
<stop offset="1" stop-color="#D9D9D9" stop-opacity="0"/>
</linearGradient>
<linearGradient id="paint79_linear_173_74" x1="1948.07" y1="1102.51" x2="1540.28" y2="736.92" gradientUnits="userSpaceOnUse">
<stop stop-color="#EA63B4"/>
<stop offset="1" stop-color="#D9D9D9" stop-opacity="0"/>
</linearGradient>
<linearGradient id="paint80_linear_173_74" x1="1948.07" y1="1102.51" x2="1540.28" y2="736.92" gradientUnits="userSpaceOnUse">
<stop stop-color="#EA63B4"/>
<stop offset="1" stop-color="#D9D9D9" stop-opacity="0"/>
</linearGradient>
<linearGradient id="paint81_linear_173_74" x1="1948.07" y1="1102.51" x2="1540.28" y2="736.92" gradientUnits="userSpaceOnUse">
<stop stop-color="#EA63B4"/>
<stop offset="1" stop-color="#D9D9D9" stop-opacity="0"/>
</linearGradient>
<linearGradient id="paint82_linear_173_74" x1="1948.07" y1="1102.51" x2="1540.28" y2="736.92" gradientUnits="userSpaceOnUse">
<stop stop-color="#EA63B4"/>
<stop offset="1" stop-color="#D9D9D9" stop-opacity="0"/>
</linearGradient>
<linearGradient id="paint83_linear_173_74" x1="1948.07" y1="1102.51" x2="1540.28" y2="736.92" gradientUnits="userSpaceOnUse">
<stop stop-color="#EA63B4"/>
<stop offset="1" stop-color="#D9D9D9" stop-opacity="0"/>
</linearGradient>
<linearGradient id="paint84_linear_173_74" x1="1948.07" y1="1102.51" x2="1540.28" y2="736.92" gradientUnits="userSpaceOnUse">
<stop stop-color="#EA63B4"/>
<stop offset="1" stop-color="#D9D9D9" stop-opacity="0"/>
</linearGradient>
<linearGradient id="paint85_linear_173_74" x1="1948.07" y1="1102.51" x2="1540.28" y2="736.92" gradientUnits="userSpaceOnUse">
<stop stop-color="#EA63B4"/>
<stop offset="1" stop-color="#D9D9D9" stop-opacity="0"/>
</linearGradient>
<linearGradient id="paint86_linear_173_74" x1="1948.07" y1="1102.51" x2="1540.28" y2="736.92" gradientUnits="userSpaceOnUse">
<stop stop-color="#EA63B4"/>
<stop offset="1" stop-color="#D9D9D9" stop-opacity="0"/>
</linearGradient>
<linearGradient id="paint87_linear_173_74" x1="1948.07" y1="1102.51" x2="1540.28" y2="736.92" gradientUnits="userSpaceOnUse">
<stop stop-color="#EA63B4"/>
<stop offset="1" stop-color="#D9D9D9" stop-opacity="0"/>
</linearGradient>
<linearGradient id="paint88_linear_173_74" x1="1948.07" y1="1102.51" x2="1540.28" y2="736.92" gradientUnits="userSpaceOnUse">
<stop stop-color="#EA63B4"/>
<stop offset="1" stop-color="#D9D9D9" stop-opacity="0"/>
</linearGradient>
<linearGradient id="paint89_linear_173_74" x1="1948.07" y1="1102.51" x2="1540.28" y2="736.92" gradientUnits="userSpaceOnUse">
<stop stop-color="#EA63B4"/>
<stop offset="1" stop-color="#D9D9D9" stop-opacity="0"/>
</linearGradient>
<linearGradient id="paint90_linear_173_74" x1="1948.07" y1="1102.51" x2="1540.28" y2="736.92" gradientUnits="userSpaceOnUse">
<stop stop-color="#EA63B4"/>
<stop offset="1" stop-color="#D9D9D9" stop-opacity="0"/>
</linearGradient>
<linearGradient id="paint91_linear_173_74" x1="1948.07" y1="1102.51" x2="1540.28" y2="736.92" gradientUnits="userSpaceOnUse">
<stop stop-color="#EA63B4"/>
<stop offset="1" stop-color="#D9D9D9" stop-opacity="0"/>
</linearGradient>
<linearGradient id="paint92_linear_173_74" x1="1948.07" y1="1102.51" x2="1540.28" y2="736.92" gradientUnits="userSpaceOnUse">
<stop stop-color="#EA63B4"/>
<stop offset="1" stop-color="#D9D9D9" stop-opacity="0"/>
</linearGradient>
<linearGradient id="paint93_linear_173_74" x1="1948.07" y1="1102.51" x2="1540.28" y2="736.92" gradientUnits="userSpaceOnUse">
<stop stop-color="#EA63B4"/>
<stop offset="1" stop-color="#D9D9D9" stop-opacity="0"/>
</linearGradient>
<linearGradient id="paint94_linear_173_74" x1="1948.07" y1="1102.51" x2="1540.28" y2="736.92" gradientUnits="userSpaceOnUse">
<stop stop-color="#EA63B4"/>
<stop offset="1" stop-color="#D9D9D9" stop-opacity="0"/>
</linearGradient>
<linearGradient id="paint95_linear_173_74" x1="1948.07" y1="1102.51" x2="1540.28" y2="736.92" gradientUnits="userSpaceOnUse">
<stop stop-color="#EA63B4"/>
<stop offset="1" stop-color="#D9D9D9" stop-opacity="0"/>
</linearGradient>
<linearGradient id="paint96_linear_173_74" x1="1948.07" y1="1102.51" x2="1540.28" y2="736.92" gradientUnits="userSpaceOnUse">
<stop stop-color="#EA63B4"/>
<stop offset="1" stop-color="#D9D9D9" stop-opacity="0"/>
</linearGradient>
<linearGradient id="paint97_linear_173_74" x1="1948.07" y1="1102.51" x2="1540.28" y2="736.92" gradientUnits="userSpaceOnUse">
<stop stop-color="#EA63B4"/>
<stop offset="1" stop-color="#D9D9D9" stop-opacity="0"/>
</linearGradient>
<linearGradient id="paint98_linear_173_74" x1="1948.07" y1="1102.51" x2="1540.28" y2="736.92" gradientUnits="userSpaceOnUse">
<stop stop-color="#EA63B4"/>
<stop offset="1" stop-color="#D9D9D9" stop-opacity="0"/>
</linearGradient>
<linearGradient id="paint99_linear_173_74" x1="1948.07" y1="1102.51" x2="1540.28" y2="736.92" gradientUnits="userSpaceOnUse">
<stop stop-color="#EA63B4"/>
<stop offset="1" stop-color="#D9D9D9" stop-opacity="0"/>
</linearGradient>
<linearGradient id="paint100_linear_173_74" x1="1948.07" y1="1102.51" x2="1540.28" y2="736.92" gradientUnits="userSpaceOnUse">
<stop stop-color="#EA63B4"/>
<stop offset="1" stop-color="#D9D9D9" stop-opacity="0"/>
</linearGradient>
<linearGradient id="paint101_linear_173_74" x1="1948.07" y1="1102.51" x2="1540.28" y2="736.92" gradientUnits="userSpaceOnUse">
<stop stop-color="#EA63B4"/>
<stop offset="1" stop-color="#D9D9D9" stop-opacity="0"/>
</linearGradient>
<linearGradient id="paint102_linear_173_74" x1="1948.07" y1="1102.51" x2="1540.28" y2="736.92" gradientUnits="userSpaceOnUse">
<stop stop-color="#EA63B4"/>
<stop offset="1" stop-color="#D9D9D9" stop-opacity="0"/>
</linearGradient>
<linearGradient id="paint103_linear_173_74" x1="1948.07" y1="1102.51" x2="1540.28" y2="736.92" gradientUnits="userSpaceOnUse">
<stop stop-color="#EA63B4"/>
<stop offset="1" stop-color="#D9D9D9" stop-opacity="0"/>
</linearGradient>
<linearGradient id="paint104_linear_173_74" x1="1948.07" y1="1102.51" x2="1540.28" y2="736.92" gradientUnits="userSpaceOnUse">
<stop stop-color="#EA63B4"/>
<stop offset="1" stop-color="#D9D9D9" stop-opacity="0"/>
</linearGradient>
<linearGradient id="paint105_linear_173_74" x1="1948.07" y1="1102.51" x2="1540.28" y2="736.92" gradientUnits="userSpaceOnUse">
<stop stop-color="#EA63B4"/>
<stop offset="1" stop-color="#D9D9D9" stop-opacity="0"/>
</linearGradient>
<linearGradient id="paint106_linear_173_74" x1="1948.07" y1="1102.51" x2="1540.28" y2="736.92" gradientUnits="userSpaceOnUse">
<stop stop-color="#EA63B4"/>
<stop offset="1" stop-color="#D9D9D9" stop-opacity="0"/>
</linearGradient>
<linearGradient id="paint107_linear_173_74" x1="1948.07" y1="1102.51" x2="1540.28" y2="736.92" gradientUnits="userSpaceOnUse">
<stop stop-color="#EA63B4"/>
<stop offset="1" stop-color="#D9D9D9" stop-opacity="0"/>
</linearGradient>
<linearGradient id="paint108_linear_173_74" x1="1948.07" y1="1102.51" x2="1540.28" y2="736.92" gradientUnits="userSpaceOnUse">
<stop stop-color="#EA63B4"/>
<stop offset="1" stop-color="#D9D9D9" stop-opacity="0"/>
</linearGradient>
<linearGradient id="paint109_linear_173_74" x1="1948.07" y1="1102.51" x2="1540.28" y2="736.92" gradientUnits="userSpaceOnUse">
<stop stop-color="#EA63B4"/>
<stop offset="1" stop-color="#D9D9D9" stop-opacity="0"/>
</linearGradient>
<linearGradient id="paint110_linear_173_74" x1="1948.07" y1="1102.51" x2="1540.28" y2="736.92" gradientUnits="userSpaceOnUse">
<stop stop-color="#EA63B4"/>
<stop offset="1" stop-color="#D9D9D9" stop-opacity="0"/>
</linearGradient>
<linearGradient id="paint111_linear_173_74" x1="1948.07" y1="1102.51" x2="1540.28" y2="736.92" gradientUnits="userSpaceOnUse">
<stop stop-color="#EA63B4"/>
<stop offset="1" stop-color="#D9D9D9" stop-opacity="0"/>
</linearGradient>
<linearGradient id="paint112_linear_173_74" x1="1948.07" y1="1102.51" x2="1540.28" y2="736.92" gradientUnits="userSpaceOnUse">
<stop stop-color="#EA63B4"/>
<stop offset="1" stop-color="#D9D9D9" stop-opacity="0"/>
</linearGradient>
<linearGradient id="paint113_linear_173_74" x1="1948.07" y1="1102.51" x2="1540.28" y2="736.92" gradientUnits="userSpaceOnUse">
<stop stop-color="#EA63B4"/>
<stop offset="1" stop-color="#D9D9D9" stop-opacity="0"/>
</linearGradient>
<linearGradient id="paint114_linear_173_74" x1="1948.07" y1="1102.51" x2="1540.28" y2="736.92" gradientUnits="userSpaceOnUse">
<stop stop-color="#EA63B4"/>
<stop offset="1" stop-color="#D9D9D9" stop-opacity="0"/>
</linearGradient>
<linearGradient id="paint115_linear_173_74" x1="1948.07" y1="1102.51" x2="1540.28" y2="736.92" gradientUnits="userSpaceOnUse">
<stop stop-color="#EA63B4"/>
<stop offset="1" stop-color="#D9D9D9" stop-opacity="0"/>
</linearGradient>
<linearGradient id="paint116_linear_173_74" x1="1948.07" y1="1102.51" x2="1540.28" y2="736.92" gradientUnits="userSpaceOnUse">
<stop stop-color="#EA63B4"/>
<stop offset="1" stop-color="#D9D9D9" stop-opacity="0"/>
</linearGradient>
<linearGradient id="paint117_linear_173_74" x1="1948.07" y1="1102.51" x2="1540.28" y2="736.92" gradientUnits="userSpaceOnUse">
<stop stop-color="#EA63B4"/>
<stop offset="1" stop-color="#D9D9D9" stop-opacity="0"/>
</linearGradient>
<linearGradient id="paint118_linear_173_74" x1="1948.07" y1="1102.51" x2="1540.28" y2="736.92" gradientUnits="userSpaceOnUse">
<stop stop-color="#EA63B4"/>
<stop offset="1" stop-color="#D9D9D9" stop-opacity="0"/>
</linearGradient>
<linearGradient id="paint119_linear_173_74" x1="1948.07" y1="1102.51" x2="1540.28" y2="736.92" gradientUnits="userSpaceOnUse">
<stop stop-color="#EA63B4"/>
<stop offset="1" stop-color="#D9D9D9" stop-opacity="0"/>
</linearGradient>
<linearGradient id="paint120_linear_173_74" x1="1948.07" y1="1102.51" x2="1540.28" y2="736.92" gradientUnits="userSpaceOnUse">
<stop stop-color="#EA63B4"/>
<stop offset="1" stop-color="#D9D9D9" stop-opacity="0"/>
</linearGradient>
<linearGradient id="paint121_linear_173_74" x1="1948.07" y1="1102.51" x2="1540.28" y2="736.92" gradientUnits="userSpaceOnUse">
<stop stop-color="#EA63B4"/>
<stop offset="1" stop-color="#D9D9D9" stop-opacity="0"/>
</linearGradient>
<linearGradient id="paint122_linear_173_74" x1="1948.07" y1="1102.51" x2="1540.28" y2="736.92" gradientUnits="userSpaceOnUse">
<stop stop-color="#EA63B4"/>
<stop offset="1" stop-color="#D9D9D9" stop-opacity="0"/>
</linearGradient>
<linearGradient id="paint123_linear_173_74" x1="1948.07" y1="1102.51" x2="1540.28" y2="736.92" gradientUnits="userSpaceOnUse">
<stop stop-color="#EA63B4"/>
<stop offset="1" stop-color="#D9D9D9" stop-opacity="0"/>
</linearGradient>
<linearGradient id="paint124_linear_173_74" x1="1948.07" y1="1102.51" x2="1540.28" y2="736.92" gradientUnits="userSpaceOnUse">
<stop stop-color="#EA63B4"/>
<stop offset="1" stop-color="#D9D9D9" stop-opacity="0"/>
</linearGradient>
<linearGradient id="paint125_linear_173_74" x1="1948.07" y1="1102.51" x2="1540.28" y2="736.92" gradientUnits="userSpaceOnUse">
<stop stop-color="#EA63B4"/>
<stop offset="1" stop-color="#D9D9D9" stop-opacity="0"/>
</linearGradient>
<linearGradient id="paint126_linear_173_74" x1="1948.07" y1="1102.51" x2="1540.28" y2="736.92" gradientUnits="userSpaceOnUse">
<stop stop-color="#EA63B4"/>
<stop offset="1" stop-color="#D9D9D9" stop-opacity="0"/>
</linearGradient>
<linearGradient id="paint127_linear_173_74" x1="1948.07" y1="1102.51" x2="1540.28" y2="736.92" gradientUnits="userSpaceOnUse">
<stop stop-color="#EA63B4"/>
<stop offset="1" stop-color="#D9D9D9" stop-opacity="0"/>
</linearGradient>
</defs>
</svg>
